<?xml version="1.0" encoding="UTF-8" standalone="no"?>
<!DOCTYPE svg PUBLIC "-//W3C//DTD SVG 1.1//EN"
 "http://www.w3.org/Graphics/SVG/1.1/DTD/svg11.dtd">
<!-- Generated by graphviz version 2.38.0 (20140413.2041)
 -->
<!-- Title: %3 Pages: 1 -->
<svg width="266pt" height="260pt"
 viewBox="0.00 0.00 266.17 260.00" xmlns="http://www.w3.org/2000/svg" xmlns:xlink="http://www.w3.org/1999/xlink">
<g id="graph0" class="graph" transform="scale(1 1) rotate(0) translate(4 256)">
<title>%3</title>
<!-- Retrospective -->
<g id="node1" class="node"><title>Retrospective</title>
<ellipse fill="none" stroke="White" cx="115.983" cy="-234" rx="58.9581" ry="18"/>
<text text-anchor="middle" x="115.983" y="-229.8" font-family="Times,serif" font-size="14.00" fill="White">Retrospective</text>
</g>
<!-- Personal -->
<g id="node2" class="node"><title>Personal</title>
<ellipse fill="none" stroke="White" cx="58.9834" cy="-162" rx="40.6248" ry="18"/>
<text text-anchor="middle" x="58.9834" y="-157.8" font-family="Times,serif" font-size="14.00" fill="White">Personal</text>
</g>
<!-- Retrospective&#45;&gt;Personal -->
<g id="edge1" class="edge"><title>Retrospective&#45;&gt;Personal</title>
<path fill="none" stroke="White" d="M102.475,-216.411C95.4475,-207.781 86.7197,-197.062 78.9311,-187.497"/>
<polygon fill="White" stroke="White" points="81.423,-185.014 72.3946,-179.47 75.9949,-189.434 81.423,-185.014"/>
</g>
<!-- Work related -->
<g id="node3" class="node"><title>Work related</title>
<ellipse fill="none" stroke="White" cx="172.983" cy="-162" rx="55.6112" ry="18"/>
<text text-anchor="middle" x="172.983" y="-157.8" font-family="Times,serif" font-size="14.00" fill="White">Work related</text>
</g>
<!-- Retrospective&#45;&gt;Work related -->
<g id="edge2" class="edge"><title>Retrospective&#45;&gt;Work related</title>
<path fill="none" stroke="White" d="M129.492,-216.411C136.417,-207.906 144.994,-197.372 152.696,-187.914"/>
<polygon fill="White" stroke="White" points="155.576,-189.921 159.176,-179.956 150.148,-185.501 155.576,-189.921"/>
</g>
<!-- Target -->
<g id="node4" class="node"><title>Target</title>
<ellipse fill="none" stroke="White" cx="127.983" cy="-90" rx="32.3198" ry="18"/>
<text text-anchor="middle" x="127.983" y="-85.8" font-family="Times,serif" font-size="14.00" fill="White">Target</text>
</g>
<!-- Work related&#45;&gt;Target -->
<g id="edge3" class="edge"><title>Work related&#45;&gt;Target</title>
<path fill="none" stroke="White" d="M162.09,-144.055C156.65,-135.592 149.962,-125.19 143.955,-115.845"/>
<polygon fill="White" stroke="White" points="146.818,-113.826 138.466,-107.307 140.93,-117.611 146.818,-113.826"/>
</g>
<!-- Regular -->
<g id="node5" class="node"><title>Regular</title>
<ellipse fill="none" stroke="White" cx="216.983" cy="-90" rx="38.2024" ry="18"/>
<text text-anchor="middle" x="216.983" y="-85.8" font-family="Times,serif" font-size="14.00" fill="White">Regular</text>
</g>
<!-- Work related&#45;&gt;Regular -->
<g id="edge4" class="edge"><title>Work related&#45;&gt;Regular</title>
<path fill="none" stroke="White" d="M183.635,-144.055C188.823,-135.801 195.171,-125.701 200.931,-116.538"/>
<polygon fill="White" stroke="White" points="204.072,-118.118 206.43,-107.789 198.145,-114.393 204.072,-118.118"/>
</g>
<!-- Specific Issue -->
<g id="node6" class="node"><title>Specific Issue</title>
<ellipse fill="none" stroke="White" cx="58.9834" cy="-18" rx="58.9668" ry="18"/>
<text text-anchor="middle" x="58.9834" y="-13.8" font-family="Times,serif" font-size="14.00" fill="White">Specific Issue</text>
</g>
<!-- Target&#45;&gt;Specific Issue -->
<g id="edge5" class="edge"><title>Target&#45;&gt;Specific Issue</title>
<path fill="none" stroke="White" d="M113.011,-73.811C104.081,-64.7512 92.5476,-53.0507 82.4317,-42.7881"/>
<polygon fill="White" stroke="White" points="84.8864,-40.2926 75.3737,-35.6278 79.9011,-45.2066 84.8864,-40.2926"/>
</g>
<!-- End of Project -->
<g id="node7" class="node"><title>End of Project</title>
<ellipse fill="none" stroke="White" cx="196.983" cy="-18" rx="61.3804" ry="18"/>
<text text-anchor="middle" x="196.983" y="-13.8" font-family="Times,serif" font-size="14.00" fill="White">End of Project</text>
</g>
<!-- Target&#45;&gt;End of Project -->
<g id="edge6" class="edge"><title>Target&#45;&gt;End of Project</title>
<path fill="none" stroke="White" d="M142.955,-73.811C151.886,-64.7512 163.419,-53.0507 173.535,-42.7881"/>
<polygon fill="White" stroke="White" points="176.066,-45.2066 180.593,-35.6278 171.08,-40.2926 176.066,-45.2066"/>
</g>
</g>
</svg>
