<?xml version="1.0" encoding="UTF-8" standalone="no"?>
<!DOCTYPE svg PUBLIC "-//W3C//DTD SVG 1.1//EN"
 "http://www.w3.org/Graphics/SVG/1.1/DTD/svg11.dtd">
<!-- Generated by graphviz version 2.38.0 (20140413.2041)
 -->
<!-- Title: %3 Pages: 1 -->
<svg width="266pt" height="188pt"
 viewBox="0.00 0.00 266.17 188.00" xmlns="http://www.w3.org/2000/svg" xmlns:xlink="http://www.w3.org/1999/xlink">
<g id="graph0" class="graph" transform="scale(1 1) rotate(0) translate(4 184)">
<title>%3</title>
<!-- Retrospective -->
<g id="node1" class="node"><title>Retrospective</title>
<ellipse fill="none" stroke="White" cx="171.983" cy="-162" rx="58.9581" ry="18"/>
<text text-anchor="middle" x="171.983" y="-157.8" font-family="Times,serif" font-size="14.00" fill="White">Retrospective</text>
</g>
<!-- Target -->
<g id="node2" class="node"><title>Target</title>
<ellipse fill="none" stroke="White" cx="127.983" cy="-90" rx="32.3198" ry="18"/>
<text text-anchor="middle" x="127.983" y="-85.8" font-family="Times,serif" font-size="14.00" fill="White">Target</text>
</g>
<!-- Retrospective&#45;&gt;Target -->
<g id="edge1" class="edge"><title>Retrospective&#45;&gt;Target</title>
<path fill="none" stroke="White" d="M161.332,-144.055C156.013,-135.592 149.474,-125.19 143.6,-115.845"/>
<polygon fill="White" stroke="White" points="146.518,-113.911 138.233,-107.307 140.592,-117.636 146.518,-113.911"/>
</g>
<!-- Regular -->
<g id="node3" class="node"><title>Regular</title>
<ellipse fill="none" stroke="White" cx="216.983" cy="-90" rx="38.2024" ry="18"/>
<text text-anchor="middle" x="216.983" y="-85.8" font-family="Times,serif" font-size="14.00" fill="White">Regular</text>
</g>
<!-- Retrospective&#45;&gt;Regular -->
<g id="edge2" class="edge"><title>Retrospective&#45;&gt;Regular</title>
<path fill="none" stroke="White" d="M182.877,-144.055C188.317,-135.592 195.004,-125.19 201.012,-115.845"/>
<polygon fill="White" stroke="White" points="204.037,-117.611 206.5,-107.307 198.149,-113.826 204.037,-117.611"/>
</g>
<!-- Specific Issue -->
<g id="node4" class="node"><title>Specific Issue</title>
<ellipse fill="none" stroke="White" cx="58.9834" cy="-18" rx="58.9668" ry="18"/>
<text text-anchor="middle" x="58.9834" y="-13.8" font-family="Times,serif" font-size="14.00" fill="White">Specific Issue</text>
</g>
<!-- Target&#45;&gt;Specific Issue -->
<g id="edge3" class="edge"><title>Target&#45;&gt;Specific Issue</title>
<path fill="none" stroke="White" d="M113.011,-73.811C104.081,-64.7512 92.5476,-53.0507 82.4317,-42.7881"/>
<polygon fill="White" stroke="White" points="84.8864,-40.2926 75.3737,-35.6278 79.9011,-45.2066 84.8864,-40.2926"/>
</g>
<!-- End of Project -->
<g id="node5" class="node"><title>End of Project</title>
<ellipse fill="none" stroke="White" cx="196.983" cy="-18" rx="61.3804" ry="18"/>
<text text-anchor="middle" x="196.983" y="-13.8" font-family="Times,serif" font-size="14.00" fill="White">End of Project</text>
</g>
<!-- Target&#45;&gt;End of Project -->
<g id="edge4" class="edge"><title>Target&#45;&gt;End of Project</title>
<path fill="none" stroke="White" d="M142.955,-73.811C151.886,-64.7512 163.419,-53.0507 173.535,-42.7881"/>
<polygon fill="White" stroke="White" points="176.066,-45.2066 180.593,-35.6278 171.08,-40.2926 176.066,-45.2066"/>
</g>
</g>
</svg>
